<?xml version="1.0" encoding="utf-8"?>
<svg version="1.1" xmlns:xlink="http://www.w3.org/1999/xlink" width="24px" height="20px" xmlns="http://www.w3.org/2000/svg">
  <g transform="matrix(1 0 0 1 -1382 -31 )">
    <path d="M 20 5.71428571428571  C 20 6.80803571428571  19.5885416666667 7.81994047619047  18.765625 8.75  C 19.2552083333333 8.85416666666666  19.7213541666667 8.99553571428571  20.1640625 9.17410714285714  C 20.6067708333333 9.35267857142857  21.0703125 9.62425595238095  21.5546875 9.98883928571429  C 22.0390625 10.3534226190476  22.453125 10.7831101190476  22.796875 11.2779017857143  C 23.140625 11.772693452381  23.4270833333333 12.4125744047619  23.65625 13.1975446428571  C 23.8854166666667 13.9825148809524  24 14.8623511904762  24 15.8370535714286  C 24 16.9828869047619  23.4791666666667 17.9631696428571  22.4375 18.7779017857143  C 21.3958333333333 19.5926339285714  20.140625 20  18.671875 20  L 5.328125 20  C 3.859375 20  2.60416666666667 19.5926339285714  1.5625 18.7779017857143  C 0.520833333333333 17.9631696428571  0 16.9828869047619  0 15.8370535714286  C 0 14.8623511904762  0.114583333333333 13.9825148809524  0.34375 13.1975446428571  C 0.572916666666667 12.4125744047619  0.859375 11.772693452381  1.203125 11.2779017857143  C 1.546875 10.7831101190476  1.9609375 10.3534226190476  2.4453125 9.98883928571429  C 2.9296875 9.62425595238095  3.39322916666667 9.35267857142857  3.8359375 9.17410714285714  C 4.27864583333333 8.99553571428571  4.74479166666667 8.85416666666666  5.234375 8.75  C 4.41145833333333 7.81994047619047  4 6.80803571428571  4 5.71428571428571  C 4 4.94047619047619  4.2109375 4.20200892857143  4.6328125 3.49888392857143  C 5.0546875 2.79575892857143  5.625 2.1875  6.34375 1.67410714285714  C 7.0625 1.16071428571429  7.9140625 0.753348214285714  8.8984375 0.452008928571428  C 9.8828125 0.150669642857142  10.9166666666667 0  12 0  C 13.0833333333333 0  14.1171875 0.150669642857142  15.1015625 0.452008928571428  C 16.0859375 0.753348214285714  16.9375 1.16071428571429  17.65625 1.67410714285714  C 18.375 2.1875  18.9453125 2.79575892857143  19.3671875 3.49888392857143  C 19.7890625 4.20200892857143  20 4.94047619047619  20 5.71428571428571  Z M 16.2421875 2.68415178571429  C 15.0703125 1.84709821428571  13.65625 1.42857142857143  12 1.42857142857143  C 10.34375 1.42857142857143  8.9296875 1.84709821428571  7.7578125 2.68415178571429  C 6.5859375 3.52120535714286  6 4.53125  6 5.71428571428571  C 6 6.89732142857143  6.5859375 7.90736607142857  7.7578125 8.74441964285714  C 8.9296875 9.58147321428571  10.34375 10  12 10  C 13.65625 10  15.0703125 9.58147321428571  16.2421875 8.74441964285714  C 17.4140625 7.90736607142857  18 6.89732142857143  18 5.71428571428571  C 18 4.53125  17.4140625 3.52120535714286  16.2421875 2.68415178571429  Z M 5.328125 18.5714285714286  L 18.671875 18.5714285714286  C 19.5885416666667 18.5714285714286  20.3723958333333 18.305431547619  21.0234375 17.7734375  C 21.6744791666667 17.241443452381  22 16.5959821428571  22 15.8370535714286  C 22 14.0587797619048  21.5911458333333 12.65625  20.7734375 11.6294642857143  C 19.9557291666667 10.6026785714286  18.78125 10.063244047619  17.25 10.0111607142857  C 15.7395833333333 10.9561011904762  13.9895833333333 11.4285714285714  12 11.4285714285714  C 10.0104166666667 11.4285714285714  8.26041666666667 10.9561011904762  6.75 10.0111607142857  C 5.21875 10.063244047619  4.04427083333333 10.6026785714286  3.2265625 11.6294642857143  C 2.40885416666667 12.65625  2 14.0587797619048  2 15.8370535714286  C 2 16.5959821428571  2.32552083333333 17.241443452381  2.9765625 17.7734375  C 3.62760416666667 18.305431547619  4.41145833333333 18.5714285714286  5.328125 18.5714285714286  Z " fill-rule="nonzero" fill="#333333" stroke="none" transform="matrix(1 0 0 1 1382 31 )" />
  </g>
</svg>