<?xml version="1.0" encoding="utf-8"?>
<svg version="1.1" xmlns:xlink="http://www.w3.org/1999/xlink" width="34px" height="20px" xmlns="http://www.w3.org/2000/svg">
  <g transform="matrix(1 0 0 1 -1304 -33 )">
    <path d="M 12.3004807692308 16.9034090909091  C 12.818108974359 17.2632575757576  13.0769230769231 17.6893939393939  13.0769230769231 18.1818181818182  C 13.0769230769231 18.6742424242424  12.818108974359 19.1003787878788  12.3004807692308 19.4602272727273  C 11.7828525641026 19.8200757575758  11.1698717948718 20  10.4615384615385 20  C 9.75320512820513 20  9.14022435897436 19.8200757575758  8.62259615384615 19.4602272727273  C 8.10496794871795 19.1003787878788  7.84615384615385 18.6742424242424  7.84615384615385 18.1818181818182  C 7.84615384615385 17.6893939393939  8.10496794871795 17.2632575757576  8.62259615384615 16.9034090909091  C 9.14022435897436 16.5435606060606  9.75320512820513 16.3636363636364  10.4615384615385 16.3636363636364  C 11.1698717948718 16.3636363636364  11.7828525641026 16.5435606060606  12.3004807692308 16.9034090909091  Z M 30.6081730769231 16.9034090909091  C 31.1258012820513 17.2632575757576  31.3846153846154 17.6893939393939  31.3846153846154 18.1818181818182  C 31.3846153846154 18.6742424242424  31.1258012820513 19.1003787878788  30.6081730769231 19.4602272727273  C 30.0905448717949 19.8200757575758  29.4775641025641 20  28.7692307692308 20  C 28.0608974358974 20  27.4479166666667 19.8200757575758  26.9302884615385 19.4602272727273  C 26.4126602564103 19.1003787878788  26.1538461538462 18.6742424242424  26.1538461538462 18.1818181818182  C 26.1538461538462 17.6893939393939  26.4126602564103 17.2632575757576  26.9302884615385 16.9034090909091  C 27.4479166666667 16.5435606060606  28.0608974358974 16.3636363636364  28.7692307692308 16.3636363636364  C 29.4775641025641 16.3636363636364  30.0905448717949 16.5435606060606  30.6081730769231 16.9034090909091  Z M 33.6117788461538 2.08806818181818  C 33.8705929487179 2.26799242424242  34 2.4810606060606  34 2.72727272727273  L 34 10  C 34 10.2272727272727  33.8876201923077 10.4285037878788  33.6628605769231 10.6036931818182  C 33.4381009615385 10.7788825757576  33.1622596153846 10.8806818181818  32.8353365384615 10.9090909090909  L 11.5036057692308 12.6420454545455  C 11.6806891025641 13.2102272727273  11.7692307692308 13.5416666666667  11.7692307692308 13.6363636363636  C 11.7692307692308 13.7878787878788  11.6057692307692 14.0909090909091  11.2788461538462 14.5454545454545  L 30.0769230769231 14.5454545454545  C 30.4310897435897 14.5454545454545  30.7375801282051 14.6354166666667  30.9963942307692 14.8153409090909  C 31.2552083333333 14.9952651515152  31.3846153846154 15.2083333333333  31.3846153846154 15.4545454545455  C 31.3846153846154 15.7007575757576  31.2552083333333 15.9138257575758  30.9963942307692 16.09375  C 30.7375801282051 16.2736742424242  30.4310897435897 16.3636363636364  30.0769230769231 16  L 9.15384615384615 16  C 8.79967948717949 16.3636363636364  8.4931891025641 16.2736742424242  8.234375 16.09375  C 7.9755608974359 15.9138257575758  7.84615384615385 15.7007575757576  7.84615384615385 15.4545454545455  C 7.84615384615385 15.3503787878788  7.90064102564102 15.2012310606061  8.00961538461539 15.0071022727273  C 8.11858974358974 14.8129734848485  8.2275641025641 14.6425189393939  8.33653846153846 14.4957386363636  C 8.44551282051282 14.3489583333333  8.59194711538462 14.1595643939394  8.77584134615385 13.9275568181818  C 8.95973557692308 13.6955492424242  9.06530448717949 13.5558712121212  9.09254807692308 13.5085227272727  L 5.47596153846154 1.81818181818182  L 1.30769230769231 1.81818181818182  C 0.953525641025641 1.81818181818182  0.647035256410257 1.7282196969697  0.388221153846154 1.54829545454545  C 0.129407051282051 1.36837121212121  0 1.15530303030303  0 0.909090909090908  C 0 0.662878787878787  0.129407051282051 0.449810606060603  0.388221153846154 0.269886363636365  C 0.647035256410257 0.0899621212121193  0.953525641025641 0  1.30769230769231 0  L 6.53846153846154 0  C 6.75641025641026 0  6.95052083333333 0.0307765151515138  7.12079326923077 0.0923295454545459  C 7.29106570512821 0.153882575757576  7.42387820512821 0.227272727272727  7.51923076923077 0.3125  C 7.61458333333333 0.397727272727273  7.703125 0.513731060606057  7.78485576923077 0.660511363636365  C 7.86658653846154 0.807291666666665  7.92107371794872 0.930397727272727  7.94831730769231 1.02982954545455  C 7.9755608974359 1.12926136363636  8.01302083333333 1.26893939393939  8.06069711538462 1.44886363636364  C 8.1083733974359 1.62878787878788  8.13902243589744 1.75189393939394  8.15264423076923 2  L 32.6923076923077 2  C 33.0464743589744 1.81818181818182  33.3529647435897 1.90814393939394  33.6117788461538 2.08806818181818  Z " fill-rule="nonzero" fill="#333333" stroke="none" transform="matrix(1 0 0 1 1304 33 )" />
  </g>
</svg>