<?xml version="1.0" encoding="utf-8"?>
<svg version="1.1" xmlns:xlink="http://www.w3.org/1999/xlink" width="22px" height="16px" xmlns="http://www.w3.org/2000/svg">
  <g transform="matrix(1 0 0 1 -1224 -33 )">
    <path d="M 13.4921875 9.8125  C 14.6512419871795 8.96955128205128  15.2307692307692 7.9551282051282  15.2307692307692 6.76923076923077  C 15.2307692307692 5.58333333333333  14.6512419871795 4.56891025641026  13.4921875 3.72596153846154  C 12.3331330128205 2.88301282051282  10.9383012820513 2.46153846153846  9.30769230769231 2.46153846153846  C 7.67708333333333 2.46153846153846  6.2822516025641 2.88301282051282  5.12319711538462 3.72596153846154  C 3.96414262820513 4.56891025641026  3.38461538461539 5.58333333333333  3.38461538461539 6.76923076923077  C 3.38461538461539 7.9551282051282  3.96414262820513 8.96955128205128  5.12319711538462 9.8125  C 6.2822516025641 10.6554487179487  7.67708333333333 11.0769230769231  9.30769230769231 11.0769230769231  C 10.9383012820513 11.0769230769231  12.3331330128205 10.6554487179487  13.4921875 9.8125  Z M 21.5108173076923 13.9038461538462  C 21.8369391025641 14.1410256410256  22 14.4294871794872  22 14.7692307692308  C 22 15.1025641025641  21.8325320512821 15.3910256410256  21.4975961538462 15.6346153846154  C 21.1626602564103 15.8782051282051  20.7660256410256 16  20.3076923076923 16  C 19.8317307692308 16  19.4350961538462 15.8782051282051  19.1177884615385 15.6346153846154  L 14.5829326923077 12.3461538461538  C 13.0052083333333 13.1410256410256  11.2467948717949 13.5384615384615  9.30769230769231 13.5384615384615  C 8.04727564102564 13.5384615384615  6.84194711538462 13.3605769230769  5.69170673076923 13.0048076923077  C 4.54146634615385 12.6490384615385  3.54987980769231 12.1682692307692  2.71694711538462 11.5625  C 1.88401442307692 10.9567307692308  1.22295673076923 10.2355769230769  0.733774038461538 9.39903846153846  C 0.244591346153846 8.5625  0 7.68589743589743  0 6.76923076923077  C 0 5.8525641025641  0.244591346153846 4.97596153846154  0.733774038461538 4.13942307692308  C 1.22295673076923 3.30288461538462  1.88401442307692 2.58173076923077  2.71694711538462 1.97596153846154  C 3.54987980769231 1.37019230769231  4.54146634615385 0.889423076923077  5.69170673076923 0.533653846153847  C 6.84194711538462 0.177884615384615  8.04727564102564 0  9.30769230769231 0  C 10.568108974359 0  11.7734375 0.177884615384615  12.9236778846154 0.533653846153847  C 14.0739182692308 0.889423076923077  15.0655048076923 1.37019230769231  15.8984375 1.97596153846154  C 16.7313701923077 2.58173076923077  17.3924278846154 3.30288461538462  17.8816105769231 4.13942307692308  C 18.3707932692308 4.97596153846154  18.6153846153846 5.8525641025641  18.6153846153846 6.76923076923077  C 18.6153846153846 8.17948717948718  18.0689102564103 9.45833333333333  16.9759615384615 10.6057692307692  L 21.5108173076923 13.9038461538462  Z " fill-rule="nonzero" fill="#000000" stroke="none" transform="matrix(1 0 0 1 1224 33 )" />
  </g>
</svg>