<?xml version="1.0" encoding="utf-8"?>
<svg version="1.1" xmlns:xlink="http://www.w3.org/1999/xlink" width="18px" height="17px" xmlns="http://www.w3.org/2000/svg">
  <g transform="matrix(1 0 0 1 -186 -32 )">
    <path d="M 4.9921875 0.0379464285714294  C 5.0390625 0.0126488095238104  5.08928571428572 0  5.14285714285714 0  C 5.22991071428572 0  5.30524553571429 0.0300409226190483  5.36886160714286 0.0901227678571431  C 5.43247767857143 0.150204613095238  5.46428571428571 0.221354166666665  5.46428571428571 0.303571428571429  L 5.46428571428571 14.2678571428571  C 5.46428571428571 14.3943452380952  5.40736607142857 14.4828869047619  5.29352678571429 14.5334821428571  L 0.472098214285714 16.9620535714286  C 0.425223214285714 16.9873511904762  0.375 17  0.321428571428571 17  C 0.234375 17  0.159040178571429 16.969959077381  0.0954241071428572 16.9098772321429  C 0.0318080357142857 16.8497953869048  0 16.7786458333333  0 16.6964285714286  L 0 2.73214285714286  C 0 2.60565476190476  0.0569196428571428 2.51711309523809  0.170758928571429 2.46651785714286  L 4.9921875 0.0379464285714294  Z M 17.5279017857143 0.0379464285714294  C 17.5747767857143 0.0126488095238104  17.625 0  17.6785714285714 0  C 17.765625 0  17.8409598214286 0.0300409226190483  17.9045758928571 0.0901227678571431  C 17.9681919642857 0.150204613095238  18 0.221354166666665  18 0.303571428571429  L 18 14.2678571428571  C 18 14.3943452380952  17.9430803571429 14.4828869047619  17.8292410714286 14.5334821428571  L 13.0078125 16.9620535714286  C 12.9609375 16.9873511904762  12.9107142857143 17  12.8571428571429 17  C 12.7700892857143 17  12.6947544642857 16.969959077381  12.6311383928571 16.9098772321429  C 12.5675223214286 16.8497953869048  12.5357142857143 16.7786458333333  12.5357142857143 16.6964285714286  L 12.5357142857143 2.73214285714286  C 12.5357142857143 2.60565476190476  12.5926339285714 2.51711309523809  12.7064732142857 2.46651785714286  L 17.5279017857143 0.0379464285714294  Z M 6.20256696428571 0.0901227678571431  C 6.26618303571429 0.0300409226190483  6.34151785714286 0  6.42857142857143 0  C 6.48214285714286 0  6.52901785714286 0.00948660714285687  6.56919642857143 0.0284598214285706  L 11.7120535714286 2.45703125  C 11.8325892857143 2.52027529761905  11.8928571428571 2.61197916666667  11.8928571428571 2.73214285714286  L 11.8928571428571 16.6964285714286  C 11.8928571428571 16.7786458333333  11.8610491071429 16.8497953869048  11.7974330357143 16.9098772321429  C 11.7338169642857 16.969959077381  11.6584821428571 17  11.5714285714286 17  C 11.5178571428571 17  11.4709821428571 16.9905133928571  11.4308035714286 16.9715401785714  L 6.28794642857143 14.54296875  C 6.16741071428571 14.479724702381  6.10714285714286 14.3880208333333  6.10714285714286 14.2678571428571  L 6.10714285714286 0.303571428571429  C 6.10714285714286 0.221354166666665  6.13895089285714 0.150204613095238  6.20256696428571 0.0901227678571431  Z " fill-rule="nonzero" fill="#000000" stroke="none" transform="matrix(1 0 0 1 186 32 )" />
  </g>
</svg>